#N canvas 427 212 450 526 12;
#X declare -path mrpeach;
#X obj 83 21 declare -path mrpeach;
#X obj 91 103 unpackOSC;
#X obj 25 146 print;
#X obj 90 71 udpreceive 9002;
#N canvas 776 123 622 573 cdur 0;
#X obj 125 468 osc~;
#X obj 128 497 *~ 0.7;
#X obj 133 528 *~;
#X obj 137 578 dac~;
#X obj 185 513 tgl 15 0 empty empty empty 17 7 0 10 -262144 -1 -1 0
1;
#X floatatom 125 403 5 0 0 0 - - -;
#X obj 125 435 mtof;
#X floatatom 124 283 5 0 0 0 - - -;
#X obj 123 191 + 1;
#X obj 123 160 f;
#X obj 123 131 bng 15 250 50 0 empty empty empty 17 7 0 10 -262144
-1 -1;
#X msg 122 356 60;
#X msg 165 357 62;
#X msg 209 357 64;
#X msg 256 358 65;
#X msg 299 358 67;
#X msg 346 359 69;
#X msg 389 359 71;
#X msg 431 359 72;
#X obj 123 60 tgl 15 0 empty empty empty 17 7 0 10 -262144 -1 -1 0
1;
#X obj 123 92 metro 1000;
#X msg 224 133 0;
#X msg 173 256 0;
#X msg 479 359 0;
#X obj 142 219 sel 9;
#X obj 286 6 inlet;
#X obj 37 36 print da;
#X obj 197 43 bng 15 250 50 0 empty empty empty 17 7 0 10 -262144 -1
-1;
#X obj 209 244 outlet;
#X obj 47 250 loadbang;
#X obj 122 321 route 1 2 3 4 5 6 7 8;
#X connect 0 0 1 0;
#X connect 1 0 2 0;
#X connect 2 0 3 0;
#X connect 2 0 3 1;
#X connect 4 0 2 1;
#X connect 5 0 6 0;
#X connect 6 0 0 0;
#X connect 7 0 30 0;
#X connect 8 0 9 1;
#X connect 8 0 7 0;
#X connect 8 0 24 0;
#X connect 9 0 8 0;
#X connect 10 0 9 0;
#X connect 11 0 5 0;
#X connect 12 0 5 0;
#X connect 13 0 5 0;
#X connect 14 0 5 0;
#X connect 15 0 5 0;
#X connect 16 0 5 0;
#X connect 17 0 5 0;
#X connect 18 0 5 0;
#X connect 19 0 20 0;
#X connect 20 0 10 0;
#X connect 21 0 9 1;
#X connect 22 0 19 0;
#X connect 22 0 4 0;
#X connect 23 0 5 0;
#X connect 24 0 22 0;
#X connect 24 0 28 0;
#X connect 25 0 26 0;
#X connect 25 0 27 0;
#X connect 27 0 19 0;
#X connect 27 0 4 0;
#X connect 27 0 21 0;
#X connect 29 0 7 0;
#X connect 30 0 11 0;
#X connect 30 1 12 0;
#X connect 30 2 13 0;
#X connect 30 3 14 0;
#X connect 30 4 15 0;
#X connect 30 5 16 0;
#X connect 30 6 17 0;
#X connect 30 7 18 0;
#X connect 30 8 23 0;
#X restore 84 185 pd cdur;
#X obj 159 446 udpsend;
#X obj 219 413 packOSC;
#X obj 222 346 receive end;
#X obj 84 220 send end;
#X msg 114 305 connect localhost 9001;
#X msg 220 380 send /end;
#X obj 88 144 routeOSC /cDur;
#X obj 222 109 send connect;
#X obj 114 264 receive connect;
#X connect 1 0 2 0;
#X connect 1 0 11 0;
#X connect 3 0 1 0;
#X connect 3 0 12 0;
#X connect 4 0 8 0;
#X connect 6 0 5 0;
#X connect 7 0 10 0;
#X connect 9 0 5 0;
#X connect 10 0 6 0;
#X connect 11 0 4 0;
#X connect 13 0 9 0;
