#N canvas 79 109 450 300 12;
#X declare -path mrpeach;
#X msg 60 79 connect localhost 9001;
#X msg 158 107 disconnect;
#X obj 17 18 declare -path mrpeach;
#X obj 50 260 udpsend;
#X obj 150 200 packOSC;
#X floatatom 151 146 5 0 0 0 - - -;
#X msg 151 172 send /test \$1;
#X connect 0 0 3 0;
#X connect 1 0 3 0;
#X connect 4 0 3 0;
#X connect 5 0 6 0;
#X connect 6 0 4 0;
