#N canvas 74 37 1351 729 12;
#X declare -path mrpeach;
#X obj 414 14 declare -path mrpeach;
#X obj 722 349 unpackOSC;
#X obj 632 349 print;
#X obj 721 317 udpreceive 9002;
#X obj 65 232 udpsend;
#X obj 125 199 packOSC;
#X obj 128 132 receive end;
#X obj 1193 386 send end;
#X msg 20 91 connect localhost 9001;
#X msg 126 166 send /end;
#X obj 853 355 send connect;
#X obj 20 50 receive connect;
#N canvas 258 51 1159 719 tonleiter 1;
#X obj 536 525 osc~;
#X obj 539 554 *~ 0.7;
#X obj 544 585 *~;
#X obj 515 634 dac~;
#X obj 984 403 tgl 15 0 empty empty empty 17 7 0 10 -262144 -1 -1 0
1;
#X floatatom 536 460 5 0 0 0 - - -;
#X obj 536 492 mtof;
#X floatatom 497 337 5 0 0 0 - - -;
#X obj 496 245 + 1;
#X obj 496 214 f;
#X obj 496 185 bng 15 250 50 0 empty empty empty 17 7 0 10 -262144
-1 -1;
#X obj 496 114 tgl 15 0 empty empty empty 17 7 0 10 -262144 -1 -1 0
1;
#X obj 496 146 metro 1000;
#X msg 597 187 0;
#X msg 546 310 0;
#X msg 833 418 0;
#X obj 515 273 sel 9;
#X obj 659 60 inlet;
#X obj 570 97 bng 15 250 50 0 empty empty empty 17 7 0 10 -262144 -1
-1;
#X obj 582 298 outlet;
#X obj 420 304 loadbang;
#X obj 495 375 route 1 2 3 4 5 6 7 8;
#X floatatom 286 414 5 0 0 0 - - -;
#X floatatom 355 412 5 0 0 0 - - -;
#X floatatom 420 414 5 0 0 0 - - -;
#X floatatom 497 416 5 0 0 0 - - -;
#X obj 265 379 r one;
#X obj 316 379 r two;
#X obj 369 378 r three;
#X obj 434 377 r four;
#X floatatom 600 415 5 0 0 0 - - -;
#X obj 658 376 r five;
#X floatatom 662 416 5 0 0 0 - - -;
#X obj 714 376 r six;
#X floatatom 725 417 5 0 0 0 - - -;
#X obj 763 377 r seven;
#X floatatom 780 419 5 0 0 0 - - -;
#X obj 827 378 r eight;
#X text 712 59 Inlet aktiviert einen Bang \, der die Tonleiter auslöst
\, er sorgt dafür \, dass der Ton und das Metronom per Schalter eingeschaltet
werden.;
#X text 125 143 Metronom sorgt dafür \, dass sich der Ton nach jeweils
einer Sekunde ändert;
#X text 125 201 Es wird eine Zahl von 0 bis 9 nach oben gezählt \,
ist sie bei 9 angekommen \, gilt das Patch durch das "outlet" als beendet
und as patch "osc_udpreceive" wird fortgeführt;
#X text 19 376 Die Midi-Werte aus der Liste werden empfangen und jeweils
in die Number-Felder übertragen Durch die route werden die Werte im
Rhythmus des Metronoms nacheinander an ein Number-Feld weitergegeben
;
#X text 124 521 mtof wandelt die Midi-Werte in Frequenzen um \, die
dann durch den Oszilator abgespielt werden können;
#X connect 0 0 1 0;
#X connect 1 0 2 0;
#X connect 2 0 3 0;
#X connect 2 0 3 1;
#X connect 4 0 2 1;
#X connect 5 0 6 0;
#X connect 6 0 0 0;
#X connect 7 0 21 0;
#X connect 8 0 9 1;
#X connect 8 0 7 0;
#X connect 8 0 16 0;
#X connect 9 0 8 0;
#X connect 10 0 9 0;
#X connect 11 0 12 0;
#X connect 12 0 10 0;
#X connect 13 0 9 1;
#X connect 14 0 11 0;
#X connect 14 0 4 0;
#X connect 15 0 5 0;
#X connect 16 0 14 0;
#X connect 16 0 19 0;
#X connect 17 0 18 0;
#X connect 18 0 11 0;
#X connect 18 0 4 0;
#X connect 18 0 13 0;
#X connect 20 0 7 0;
#X connect 21 0 22 0;
#X connect 21 1 23 0;
#X connect 21 2 24 0;
#X connect 21 3 25 0;
#X connect 21 4 30 0;
#X connect 21 5 32 0;
#X connect 21 6 34 0;
#X connect 21 7 36 0;
#X connect 21 8 15 0;
#X connect 22 0 5 0;
#X connect 23 0 5 0;
#X connect 24 0 5 0;
#X connect 25 0 5 0;
#X connect 26 0 22 0;
#X connect 27 0 23 0;
#X connect 28 0 24 0;
#X connect 29 0 25 0;
#X connect 30 0 5 0;
#X connect 31 0 30 0;
#X connect 32 0 5 0;
#X connect 33 0 32 0;
#X connect 34 0 5 0;
#X connect 35 0 34 0;
#X connect 36 0 5 0;
#X connect 37 0 36 0;
#X restore 1091 340 pd tonleiter;
#X msg 426 537 48 50 52 53 55 57 59 60, f 13;
#X obj 770 614 unpack f f f f f f f f;
#X obj 429 494 routeOSC /cDur;
#X obj 542 495 routeOSC /dDur;
#X obj 655 495 routeOSC /eDur;
#X obj 768 495 routeOSC /fDur;
#X msg 543 539 50 52 54 55 57 59 61 62, f 13;
#X msg 656 538 52 54 56 57 59 61 63 64, f 13;
#X obj 882 495 routeOSC /gDur;
#X msg 768 538 53 55 57 58 60 62 64 65, f 13;
#X obj 436 659 send one;
#X obj 564 659 send two;
#X obj 665 662 send three;
#X obj 995 495 routeOSC /aDur;
#X obj 1106 496 routeOSC /hDur;
#X msg 882 538 55 57 59 60 62 64 66 67, f 13;
#X obj 782 664 send four;
#X obj 889 663 send five;
#X obj 1009 664 send six;
#X msg 996 538 57 59 61 62 64 66 68 69, f 13;
#X msg 1107 538 59 61 63 64 66 68 70 71, f 13;
#X msg 1220 537 60 62 64 65 67 69 71 72, f 13;
#X obj 1108 663 send seven;
#X obj 1225 662 send eight;
#X obj 1215 495 routeOSC /cDur2;
#X text 575 14 Import des External "MRPEACH";
#X text 191 90 Connection über Port 9001;
#X text 201 166 sendet "/end" an Processing;
#X text 215 129 wartet auf Nachricht aus dem Patch "tonleiter";
#X text 656 297 Empfang von Nachrichten über Port 9002;
#X text 15 5 Send-Part \, um nach Beendigung der Tonleiter ein Signal
an Processing senden zu können;
#X text 13 507 Es wird per Route die entsprechende Tonleiter \, die
abgespielt werden soll \, empfangen Für die jeweilige Tonleiter ist
eine Liste mit den Midi-Daten aller enthaltenen Töne bereitgestellt
Die jeweilige Liste wird entpackt und die Töne werden dann einzeln
an das Patch "tonleiter gesendet". Außerdem wird das Patch "tonleiter"
aufgerufen \, damit eine Tonleiter abgespielt werden kann;
#X connect 1 0 2 0;
#X connect 1 0 15 0;
#X connect 1 0 16 0;
#X connect 1 0 17 0;
#X connect 1 0 18 0;
#X connect 1 0 21 0;
#X connect 1 0 26 0;
#X connect 1 0 27 0;
#X connect 1 0 37 0;
#X connect 3 0 1 0;
#X connect 3 0 10 0;
#X connect 5 0 4 0;
#X connect 6 0 9 0;
#X connect 8 0 4 0;
#X connect 9 0 5 0;
#X connect 11 0 8 0;
#X connect 12 0 7 0;
#X connect 13 0 14 0;
#X connect 14 0 23 0;
#X connect 14 1 24 0;
#X connect 14 2 25 0;
#X connect 14 3 29 0;
#X connect 14 4 30 0;
#X connect 14 5 31 0;
#X connect 14 6 35 0;
#X connect 14 7 36 0;
#X connect 15 0 13 0;
#X connect 15 0 12 0;
#X connect 16 0 19 0;
#X connect 16 0 12 0;
#X connect 17 0 20 0;
#X connect 17 0 12 0;
#X connect 18 0 22 0;
#X connect 18 0 12 0;
#X connect 19 0 14 0;
#X connect 20 0 14 0;
#X connect 21 0 28 0;
#X connect 21 0 12 0;
#X connect 22 0 14 0;
#X connect 26 0 32 0;
#X connect 26 0 12 0;
#X connect 27 0 33 0;
#X connect 27 0 12 0;
#X connect 28 0 14 0;
#X connect 32 0 14 0;
#X connect 33 0 14 0;
#X connect 34 0 14 0;
#X connect 37 0 34 0;
#X connect 37 0 12 0;
