#N canvas 746 71 590 738 12;
#X obj 112 434 osc~;
#X obj 115 463 *~ 0.7;
#X obj 120 494 *~;
#X obj 124 544 dac~;
#X obj 172 479 tgl 15 0 empty empty empty 17 7 0 10 -262144 -1 -1 0
1;
#X floatatom 112 369 5 0 0 0 - - -;
#X obj 112 401 mtof;
#X floatatom 110 259 5 0 0 0 - - -;
#X obj 110 157 + 1;
#X obj 110 126 f;
#X obj 110 97 bng 15 250 50 0 empty empty empty 17 7 0 10 -262144 -1
-1;
#X msg 109 322 60;
#X msg 152 323 62;
#X msg 196 323 64;
#X msg 243 324 65;
#X msg 286 324 67;
#X msg 333 325 69;
#X msg 376 325 71;
#X msg 418 325 72;
#X obj 109 287 route 1 2 3 4 5 6 7 8;
#X obj 110 26 tgl 15 0 empty empty empty 17 7 0 10 -262144 -1 -1 0
1;
#X obj 110 58 metro 1000;
#X msg 157 111 0;
#X msg 149 219 0;
#X obj 158 86 loadbang;
#X msg 466 325 0;
#X obj 129 185 sel 9;
#X connect 0 0 1 0;
#X connect 1 0 2 0;
#X connect 2 0 3 0;
#X connect 2 0 3 1;
#X connect 4 0 2 1;
#X connect 5 0 6 0;
#X connect 6 0 0 0;
#X connect 7 0 19 0;
#X connect 8 0 9 1;
#X connect 8 0 7 0;
#X connect 8 0 26 0;
#X connect 9 0 8 0;
#X connect 10 0 9 0;
#X connect 11 0 5 0;
#X connect 12 0 5 0;
#X connect 13 0 5 0;
#X connect 14 0 5 0;
#X connect 15 0 5 0;
#X connect 16 0 5 0;
#X connect 17 0 5 0;
#X connect 18 0 5 0;
#X connect 19 0 11 0;
#X connect 19 1 12 0;
#X connect 19 2 13 0;
#X connect 19 3 14 0;
#X connect 19 4 15 0;
#X connect 19 5 16 0;
#X connect 19 6 17 0;
#X connect 19 7 18 0;
#X connect 19 8 25 0;
#X connect 20 0 21 0;
#X connect 21 0 10 0;
#X connect 22 0 9 1;
#X connect 23 0 20 0;
#X connect 24 0 22 0;
#X connect 25 0 5 0;
#X connect 26 0 23 0;
